# xmcd CD database file
#
# Track frame offsets:
#	150
#	17053
#	30494
#	44243
#	62800
#	72945
#	87512
#	98947
#	112417
#	121923
#	133981
#	145924
#	158480
#	168466
#	183578
#	193250
#	206158
#
# Disc length: 2920 seconds
#
# Revision: 2
# Processed by: cddbd v1.5.2PL0 Copyright (c) Steve Scherf et al.
# Submitted via: CDex 1.51
#
DISCID=0a0b6611
DTITLE=Per-Martin - The Searcher
DYEAR=2008
DGENRE=Gospel
TTITLE0=Where could i go but to the Lord
TTITLE1=Styrkan i Hans hand
TTITLE2=This world is not my home
TTITLE3=The Searcher 
TTITLE4=Milky white way
TTITLE5=Säg varför tror du ej
TTITLE6=Take my hand, Precious Lord
TTITLE7=Josua fit the battle
TTITLE8=Known only to him
TTITLE9=Säkra ord
TTITLE10=In my Fathers house
TTITLE11=In the Ghetto
TTITLE12=Without him
TTITLE13=Who am I
TTITLE14=Across the bridge
TTITLE15=Peace in the Vally
TTITLE16=The Nightwatch
EXTD=YEAR: 2008
EXTT0=
EXTT1=
EXTT2=
EXTT3=
EXTT4=
EXTT5=
EXTT6=
EXTT7=
EXTT8=
EXTT9=
EXTT10=
EXTT11=
EXTT12=
EXTT13=
EXTT14=
EXTT15=
EXTT16=
PLAYORDER=
